<?xml version="1.0" encoding="UTF-8"?>
<svg xmlns="http://www.w3.org/2000/svg" xmlns:xlink="http://www.w3.org/1999/xlink" width="1920" height="1080" viewBox="0 0 1920 1080">
<defs>
<g>
<g id="glyph-0-0">
<path d="M 0.300781 -0.421875 C 0.746094 -0.445312 1.0625 -0.507812 1.246094 -0.609375 C 1.554688 -0.785156 1.710938 -1.113281 1.710938 -1.59375 L 1.710938 -9.660156 C 1.710938 -10.132812 1.570312 -10.453125 1.292969 -10.621094 C 1.125 -10.71875 0.792969 -10.792969 0.300781 -10.839844 L 0.300781 -11.261719 L 5.941406 -11.261719 L 5.941406 -10.839844 C 5.453125 -10.8125 5.113281 -10.746094 4.921875 -10.644531 C 4.609375 -10.472656 4.453125 -10.144531 4.453125 -9.660156 L 4.453125 -6.210938 L 8.421875 -6.210938 L 8.421875 -9.660156 C 8.421875 -10.144531 8.273438 -10.46875 7.976562 -10.636719 C 7.792969 -10.738281 7.445312 -10.808594 6.941406 -10.839844 L 6.941406 -11.261719 L 12.613281 -11.261719 L 12.613281 -10.839844 C 12.125 -10.800781 11.792969 -10.730469 11.613281 -10.628906 C 11.316406 -10.460938 11.164062 -10.136719 11.164062 -9.660156 L 11.164062 -1.59375 C 11.164062 -1.105469 11.332031 -0.777344 11.660156 -0.601562 C 11.851562 -0.5 12.167969 -0.441406 12.613281 -0.421875 L 12.613281 0 L 6.941406 0 L 6.941406 -0.421875 C 7.417969 -0.4375 7.757812 -0.503906 7.960938 -0.617188 C 8.269531 -0.792969 8.421875 -1.117188 8.421875 -1.59375 L 8.421875 -5.4375 L 4.453125 -5.4375 L 4.453125 -1.59375 C 4.453125 -1.101562 4.621094 -0.769531 4.957031 -0.59375 C 5.152344 -0.496094 5.480469 -0.441406 5.941406 -0.421875 L 5.941406 0 L 0.300781 0 Z "/>
</g>
<g id="glyph-0-1">
<path d="M 0.367188 -3.816406 C 0.367188 -4.976562 0.722656 -5.945312 1.4375 -6.722656 C 2.148438 -7.5 3.046875 -7.886719 4.125 -7.886719 C 5.226562 -7.886719 6.128906 -7.488281 6.832031 -6.699219 C 7.535156 -5.90625 7.886719 -4.945312 7.886719 -3.816406 C 7.886719 -2.703125 7.539062 -1.75 6.84375 -0.949219 C 6.148438 -0.148438 5.242188 0.253906 4.125 0.253906 C 3.039062 0.253906 2.144531 -0.136719 1.433594 -0.914062 C 0.722656 -1.695312 0.367188 -2.660156 0.367188 -3.816406 Z M 2.816406 -3.816406 C 2.816406 -2.648438 2.875 -1.832031 2.996094 -1.367188 C 3.183594 -0.644531 3.5625 -0.285156 4.125 -0.285156 C 4.664062 -0.285156 5.015625 -0.5625 5.183594 -1.113281 C 5.351562 -1.667969 5.4375 -2.570312 5.4375 -3.816406 C 5.4375 -5.058594 5.347656 -5.957031 5.171875 -6.515625 C 4.996094 -7.070312 4.648438 -7.347656 4.132812 -7.347656 C 3.570312 -7.347656 3.191406 -6.988281 3.003906 -6.265625 C 2.878906 -5.785156 2.816406 -4.96875 2.816406 -3.816406 Z "/>
</g>
<g id="glyph-0-2">
<path d="M 3.972656 -7.675781 L 3.972656 -7.265625 C 3.78125 -7.25 3.625 -7.210938 3.507812 -7.148438 C 3.386719 -7.085938 3.328125 -6.960938 3.328125 -6.769531 C 3.328125 -6.707031 3.335938 -6.644531 3.351562 -6.582031 C 3.367188 -6.523438 3.402344 -6.433594 3.449219 -6.308594 L 4.6875 -3.042969 L 4.777344 -3.042969 L 5.859375 -5.785156 C 5.859375 -5.824219 5.816406 -5.988281 5.730469 -6.277344 C 5.644531 -6.570312 5.570312 -6.769531 5.507812 -6.886719 C 5.421875 -7.039062 5.339844 -7.132812 5.261719 -7.167969 C 5.183594 -7.207031 5.019531 -7.242188 4.777344 -7.265625 L 4.777344 -7.675781 L 8.675781 -7.675781 L 8.675781 -7.265625 C 8.4375 -7.257812 8.246094 -7.226562 8.101562 -7.179688 C 7.957031 -7.128906 7.886719 -7.035156 7.886719 -6.894531 C 7.886719 -6.8125 7.894531 -6.71875 7.914062 -6.613281 C 7.933594 -6.507812 7.96875 -6.363281 8.023438 -6.183594 L 8.871094 -3.199219 L 8.96875 -3.199219 L 10.164062 -6.378906 C 10.179688 -6.433594 10.195312 -6.484375 10.207031 -6.535156 C 10.214844 -6.582031 10.222656 -6.628906 10.222656 -6.671875 C 10.222656 -6.90625 10.152344 -7.058594 10.015625 -7.128906 C 9.875 -7.199219 9.671875 -7.246094 9.40625 -7.265625 L 9.40625 -7.675781 L 11.671875 -7.675781 L 11.671875 -7.265625 C 11.46875 -7.230469 11.3125 -7.160156 11.195312 -7.058594 C 11.078125 -6.960938 10.960938 -6.753906 10.839844 -6.4375 L 8.253906 0.234375 L 7.871094 0.234375 L 6.183594 -4.816406 L 6.113281 -4.816406 L 4.085938 0.234375 L 3.679688 0.234375 L 1.210938 -5.996094 C 1.007812 -6.511719 0.855469 -6.84375 0.757812 -6.988281 C 0.660156 -7.132812 0.496094 -7.222656 0.269531 -7.265625 L 0.269531 -7.675781 Z "/>
</g>
<g id="glyph-0-3">
<rect x="0" y="0" width="0" height="0" mask="url(#mask-0)"/>
</g>
<g id="glyph-0-4">
<path d="M 0.269531 -0.421875 C 0.742188 -0.433594 1.078125 -0.492188 1.285156 -0.59375 C 1.621094 -0.769531 1.789062 -1.101562 1.789062 -1.59375 L 1.789062 -9.660156 C 1.789062 -10.152344 1.628906 -10.484375 1.308594 -10.652344 C 1.113281 -10.753906 0.769531 -10.816406 0.269531 -10.839844 L 0.269531 -11.261719 L 6.09375 -11.261719 L 6.09375 -10.839844 C 5.574219 -10.816406 5.214844 -10.757812 5.019531 -10.660156 C 4.695312 -10.492188 4.53125 -10.160156 4.53125 -9.660156 L 4.53125 -1.59375 C 4.53125 -1.128906 4.664062 -0.816406 4.921875 -0.660156 C 5.183594 -0.503906 5.574219 -0.421875 6.09375 -0.421875 L 6.09375 0 L 0.269531 0 Z "/>
</g>
<g id="glyph-0-5">
<path d="M 0.269531 -6.941406 L 0.269531 -7.40625 C 0.414062 -7.542969 0.597656 -7.703125 0.8125 -7.886719 C 1.101562 -8.152344 1.371094 -8.425781 1.628906 -8.707031 C 2.132812 -9.261719 2.589844 -9.855469 3.003906 -10.488281 L 3.425781 -10.488281 L 3.425781 -7.675781 L 5.011719 -7.675781 L 5.011719 -6.941406 L 3.425781 -6.941406 L 3.425781 -1.929688 C 3.425781 -1.695312 3.460938 -1.5 3.53125 -1.34375 C 3.640625 -1.097656 3.820312 -0.976562 4.070312 -0.976562 C 4.285156 -0.976562 4.46875 -1.054688 4.613281 -1.207031 C 4.761719 -1.363281 4.90625 -1.574219 5.054688 -1.847656 L 5.453125 -1.652344 C 5.257812 -1.195312 5.023438 -0.824219 4.753906 -0.539062 C 4.277344 -0.03125 3.691406 0.21875 3.003906 0.21875 C 2.613281 0.21875 2.269531 0.148438 1.976562 0 C 1.414062 -0.28125 1.132812 -0.792969 1.132812 -1.539062 L 1.132812 -6.941406 Z "/>
</g>
<g id="glyph-0-6">
<path d="M 5.207031 -11.261719 L 5.207031 -10.839844 C 4.804688 -10.800781 4.53125 -10.746094 4.382812 -10.667969 C 4.234375 -10.59375 4.160156 -10.417969 4.160156 -10.148438 C 4.160156 -10.078125 4.167969 -9.996094 4.183594 -9.898438 C 4.199219 -9.804688 4.222656 -9.707031 4.257812 -9.601562 L 6.183594 -3.777344 L 6.324219 -3.777344 L 8.234375 -8.660156 C 8.246094 -8.6875 8.167969 -8.933594 8.003906 -9.398438 C 7.839844 -9.867188 7.722656 -10.152344 7.65625 -10.261719 C 7.53125 -10.457031 7.394531 -10.597656 7.246094 -10.675781 C 7.097656 -10.757812 6.828125 -10.8125 6.4375 -10.839844 L 6.4375 -11.261719 L 11.644531 -11.261719 L 11.644531 -10.839844 C 11.167969 -10.800781 10.847656 -10.75 10.691406 -10.683594 C 10.53125 -10.621094 10.449219 -10.472656 10.449219 -10.246094 C 10.449219 -10.191406 10.46875 -10.085938 10.503906 -9.933594 C 10.539062 -9.777344 10.597656 -9.566406 10.683594 -9.292969 L 12.417969 -3.929688 L 12.53125 -3.929688 L 14.347656 -9.40625 C 14.378906 -9.503906 14.40625 -9.609375 14.429688 -9.722656 C 14.449219 -9.832031 14.460938 -9.957031 14.460938 -10.089844 C 14.460938 -10.398438 14.34375 -10.605469 14.113281 -10.710938 C 13.972656 -10.773438 13.703125 -10.816406 13.304688 -10.839844 L 13.304688 -11.261719 L 16.359375 -11.261719 L 16.359375 -10.839844 C 16.101562 -10.800781 15.90625 -10.738281 15.761719 -10.644531 C 15.519531 -10.476562 15.328125 -10.1875 15.195312 -9.773438 L 11.855469 0.277344 L 11.417969 0.277344 L 8.617188 -7.535156 L 8.503906 -7.535156 L 5.453125 0.277344 L 4.988281 0.277344 L 1.464844 -9.773438 C 1.3125 -10.214844 1.160156 -10.492188 1.007812 -10.613281 C 0.855469 -10.730469 0.621094 -10.8125 0.300781 -10.855469 L 0.300781 -11.261719 Z "/>
</g>
<g id="glyph-0-7">
<path d="M 0.300781 -0.398438 C 0.621094 -0.4375 0.84375 -0.511719 0.96875 -0.625 C 1.09375 -0.738281 1.160156 -0.960938 1.171875 -1.285156 L 1.1875 -1.773438 L 1.1875 -6.308594 C 1.1875 -6.65625 1.128906 -6.890625 1.007812 -7.015625 C 0.890625 -7.140625 0.652344 -7.222656 0.300781 -7.265625 L 0.300781 -7.675781 L 3.46875 -7.675781 L 3.46875 -6.363281 C 3.820312 -6.824219 4.167969 -7.191406 4.515625 -7.460938 C 4.863281 -7.734375 5.265625 -7.871094 5.722656 -7.871094 C 6.0625 -7.871094 6.371094 -7.757812 6.644531 -7.539062 C 6.917969 -7.320312 7.054688 -7 7.054688 -6.574219 C 7.054688 -6.25 6.960938 -5.980469 6.765625 -5.769531 C 6.574219 -5.558594 6.324219 -5.453125 6.015625 -5.453125 C 5.660156 -5.453125 5.355469 -5.617188 5.097656 -5.949219 C 4.839844 -6.28125 4.660156 -6.445312 4.558594 -6.445312 C 4.335938 -6.445312 4.109375 -6.308594 3.886719 -6.035156 C 3.660156 -5.761719 3.546875 -5.367188 3.546875 -4.859375 L 3.546875 -1.710938 C 3.546875 -1.15625 3.628906 -0.808594 3.789062 -0.671875 C 3.949219 -0.535156 4.265625 -0.441406 4.746094 -0.398438 L 4.746094 0 L 0.300781 0 Z "/>
</g>
<g id="glyph-0-8">
<path d="M 0.269531 -0.398438 C 0.5625 -0.46875 0.769531 -0.5625 0.890625 -0.679688 C 1.011719 -0.796875 1.074219 -1.039062 1.074219 -1.40625 L 1.074219 -9.894531 C 1.074219 -10.25 1.015625 -10.480469 0.902344 -10.585938 C 0.789062 -10.695312 0.578125 -10.785156 0.269531 -10.855469 L 0.269531 -11.261719 L 3.394531 -11.261719 L 3.394531 -4.085938 L 5.507812 -6.210938 C 5.632812 -6.335938 5.722656 -6.453125 5.777344 -6.5625 C 5.832031 -6.675781 5.859375 -6.761719 5.859375 -6.828125 C 5.859375 -6.996094 5.785156 -7.105469 5.636719 -7.160156 C 5.488281 -7.214844 5.234375 -7.257812 4.875 -7.292969 L 4.875 -7.675781 L 8.449219 -7.675781 L 8.449219 -7.292969 C 8.105469 -7.25 7.835938 -7.1875 7.632812 -7.113281 C 7.273438 -6.972656 6.929688 -6.734375 6.59375 -6.398438 L 5.296875 -5.085938 L 8.519531 -0.652344 C 8.585938 -0.558594 8.648438 -0.496094 8.707031 -0.46875 C 8.765625 -0.4375 8.847656 -0.414062 8.945312 -0.398438 L 8.945312 0 L 5.054688 0 L 5.054688 -0.398438 C 5.292969 -0.410156 5.46875 -0.441406 5.578125 -0.488281 C 5.691406 -0.539062 5.746094 -0.613281 5.746094 -0.714844 C 5.746094 -0.769531 5.722656 -0.84375 5.675781 -0.941406 C 5.628906 -1.035156 5.519531 -1.210938 5.339844 -1.464844 L 3.761719 -3.703125 L 3.394531 -3.296875 L 3.394531 -1.40625 C 3.394531 -1.03125 3.441406 -0.785156 3.53125 -0.660156 C 3.625 -0.535156 3.859375 -0.449219 4.238281 -0.398438 L 4.238281 0 L 0.269531 0 Z "/>
</g>
<g id="glyph-0-9">
<path d="M 0.421875 -2.523438 L 0.886719 -2.523438 C 1.050781 -1.726562 1.355469 -1.164062 1.796875 -0.835938 C 2.242188 -0.507812 2.699219 -0.34375 3.164062 -0.34375 C 3.59375 -0.34375 3.910156 -0.4375 4.109375 -0.628906 C 4.308594 -0.824219 4.410156 -1.078125 4.410156 -1.390625 C 4.410156 -1.691406 4.300781 -1.945312 4.085938 -2.15625 C 3.964844 -2.269531 3.773438 -2.394531 3.507812 -2.523438 L 2.269531 -3.125 C 1.621094 -3.445312 1.152344 -3.792969 0.871094 -4.167969 C 0.582031 -4.542969 0.441406 -4.984375 0.441406 -5.492188 C 0.441406 -6.136719 0.664062 -6.695312 1.113281 -7.164062 C 1.566406 -7.632812 2.195312 -7.871094 3.003906 -7.871094 C 3.355469 -7.871094 3.730469 -7.8125 4.125 -7.695312 C 4.523438 -7.578125 4.769531 -7.519531 4.867188 -7.519531 C 5.003906 -7.519531 5.097656 -7.546875 5.15625 -7.605469 C 5.210938 -7.664062 5.261719 -7.742188 5.296875 -7.84375 L 5.664062 -7.84375 L 5.664062 -5.4375 L 5.242188 -5.4375 C 5.085938 -6 4.824219 -6.453125 4.46875 -6.796875 C 4.109375 -7.136719 3.691406 -7.308594 3.214844 -7.308594 C 2.847656 -7.308594 2.570312 -7.203125 2.386719 -7 C 2.207031 -6.792969 2.117188 -6.570312 2.117188 -6.332031 C 2.117188 -6.136719 2.199219 -5.941406 2.359375 -5.746094 C 2.515625 -5.546875 2.816406 -5.339844 3.253906 -5.128906 L 4.167969 -4.6875 C 4.730469 -4.417969 5.144531 -4.152344 5.402344 -3.898438 C 5.835938 -3.464844 6.054688 -2.929688 6.054688 -2.296875 C 6.054688 -1.675781 5.832031 -1.101562 5.382812 -0.566406 C 4.9375 -0.03125 4.265625 0.234375 3.371094 0.234375 C 3.148438 0.234375 2.921875 0.214844 2.699219 0.167969 C 2.472656 0.121094 2.195312 0.0390625 1.863281 -0.0742188 L 1.578125 -0.171875 C 1.476562 -0.210938 1.410156 -0.230469 1.386719 -0.234375 C 1.363281 -0.242188 1.332031 -0.246094 1.292969 -0.246094 C 1.203125 -0.246094 1.121094 -0.207031 1.054688 -0.132812 C 0.988281 -0.0625 0.910156 0.0625 0.820312 0.234375 L 0.421875 0.234375 Z "/>
</g>
</g>
<image id="source-8" x="0" y="0" width="0" height="0"/>
<mask id="mask-0">
<use xlink:href="#source-8"/>
</mask>
</defs>
<g fill="rgb(57.647059%, 77.254902%, 99.215686%)" fill-opacity="1">
<use xlink:href="#glyph-0-0" x="30" y="32.5"/>
<use xlink:href="#glyph-0-1" x="43" y="32.5"/>
<use xlink:href="#glyph-0-2" x="51" y="32.5"/>
<use xlink:href="#glyph-0-3" x="63" y="32.5"/>
<use xlink:href="#glyph-0-4" x="67" y="32.5"/>
<use xlink:href="#glyph-0-5" x="73" y="32.5"/>
<use xlink:href="#glyph-0-3" x="79" y="32.5"/>
<use xlink:href="#glyph-0-6" x="83" y="32.5"/>
<use xlink:href="#glyph-0-1" x="99" y="32.5"/>
<use xlink:href="#glyph-0-7" x="107" y="32.5"/>
<use xlink:href="#glyph-0-8" x="114" y="32.5"/>
<use xlink:href="#glyph-0-9" x="123" y="32.5"/>
</g>
</svg>
