<?xml version="1.0" encoding="UTF-8"?>
<svg xmlns="http://www.w3.org/2000/svg" xmlns:xlink="http://www.w3.org/1999/xlink" width="1920" height="1080" viewBox="0 0 1920 1080">
<defs>
<g>
<g id="glyph-0-0">
<path d="M 1.457031 -1.652344 C 1.5 -1.652344 1.546875 -1.660156 1.597656 -1.675781 C 1.652344 -1.691406 1.683594 -1.707031 1.695312 -1.722656 C 1.703125 -1.734375 1.714844 -1.796875 1.726562 -1.917969 C 1.738281 -2.039062 1.746094 -2.179688 1.746094 -2.339844 C 1.746094 -2.523438 1.742188 -2.683594 1.734375 -2.828125 C 1.726562 -2.972656 1.714844 -3.097656 1.695312 -3.199219 C 1.671875 -3.324219 1.640625 -3.421875 1.601562 -3.492188 C 1.539062 -3.605469 1.445312 -3.664062 1.328125 -3.664062 C 1.199219 -3.664062 1.105469 -3.601562 1.046875 -3.472656 C 0.988281 -3.347656 0.960938 -3.160156 0.960938 -2.910156 C 0.960938 -2.492188 1 -2.179688 1.074219 -1.96875 C 1.148438 -1.757812 1.277344 -1.652344 1.457031 -1.652344 Z M 0.164062 -0.0625 C 0.464844 -0.121094 0.714844 -0.21875 0.914062 -0.351562 C 1.273438 -0.597656 1.515625 -0.96875 1.636719 -1.464844 L 1.613281 -1.484375 C 1.535156 -1.457031 1.476562 -1.441406 1.429688 -1.429688 C 1.339844 -1.410156 1.246094 -1.398438 1.148438 -1.398438 C 0.859375 -1.398438 0.617188 -1.5 0.421875 -1.699219 C 0.230469 -1.902344 0.132812 -2.175781 0.132812 -2.519531 C 0.132812 -2.917969 0.253906 -3.234375 0.492188 -3.46875 C 0.730469 -3.703125 1.011719 -3.820312 1.335938 -3.820312 C 1.710938 -3.820312 2.019531 -3.675781 2.261719 -3.386719 C 2.503906 -3.097656 2.625 -2.71875 2.625 -2.242188 C 2.625 -1.53125 2.347656 -0.957031 1.796875 -0.527344 C 1.335938 -0.164062 0.792969 0.0390625 0.164062 0.078125 Z "/>
</g>
<g id="glyph-0-1">
<path d="M 0.441406 -0.390625 C 0.441406 -0.519531 0.488281 -0.632812 0.578125 -0.722656 C 0.671875 -0.8125 0.78125 -0.859375 0.910156 -0.859375 C 1.042969 -0.859375 1.152344 -0.8125 1.242188 -0.722656 C 1.335938 -0.632812 1.378906 -0.519531 1.378906 -0.390625 C 1.378906 -0.261719 1.335938 -0.148438 1.242188 -0.0585938 C 1.152344 0.03125 1.042969 0.078125 0.910156 0.078125 C 0.78125 0.078125 0.671875 0.03125 0.578125 -0.0585938 C 0.488281 -0.148438 0.441406 -0.261719 0.441406 -0.390625 Z "/>
</g>
<g id="glyph-0-2">
<path d="M 0.09375 -0.128906 C 0.6875 -0.769531 1.070312 -1.214844 1.25 -1.464844 C 1.523438 -1.84375 1.664062 -2.179688 1.664062 -2.472656 C 1.664062 -2.648438 1.609375 -2.808594 1.503906 -2.960938 C 1.398438 -3.113281 1.234375 -3.1875 1.011719 -3.1875 C 0.816406 -3.1875 0.652344 -3.121094 0.519531 -2.984375 C 0.445312 -2.910156 0.382812 -2.808594 0.324219 -2.6875 L 0.171875 -2.6875 C 0.296875 -3.070312 0.464844 -3.355469 0.683594 -3.542969 C 0.902344 -3.726562 1.144531 -3.820312 1.417969 -3.820312 C 1.671875 -3.820312 1.90625 -3.730469 2.117188 -3.550781 C 2.324219 -3.375 2.429688 -3.113281 2.429688 -2.765625 C 2.429688 -2.585938 2.382812 -2.402344 2.28125 -2.210938 C 2.183594 -2.019531 2.019531 -1.816406 1.785156 -1.59375 L 0.9375 -0.785156 L 0.9375 -0.738281 L 1.726562 -0.738281 C 2.003906 -0.738281 2.183594 -0.761719 2.265625 -0.804688 C 2.351562 -0.851562 2.433594 -0.972656 2.519531 -1.167969 L 2.652344 -1.167969 L 2.402344 0 L 0.09375 0 Z "/>
</g>
<g id="glyph-0-3">
<path d="M 1.222656 -3.84375 L 1.621094 -3.84375 L 0.320312 0.09375 L -0.078125 0.09375 Z "/>
</g>
<g id="glyph-0-4">
<path d="M 0.371094 -0.132812 C 0.652344 -0.132812 0.835938 -0.171875 0.914062 -0.25 C 0.992188 -0.324219 1.035156 -0.472656 1.035156 -0.6875 L 1.035156 -2.828125 C 1.035156 -2.964844 1.019531 -3.0625 0.984375 -3.121094 C 0.953125 -3.179688 0.894531 -3.207031 0.8125 -3.207031 C 0.765625 -3.207031 0.695312 -3.191406 0.601562 -3.160156 C 0.542969 -3.140625 0.460938 -3.113281 0.359375 -3.074219 L 0.359375 -3.214844 L 1.761719 -3.820312 L 1.859375 -3.820312 L 1.859375 -0.652344 C 1.859375 -0.449219 1.890625 -0.3125 1.957031 -0.242188 C 2.019531 -0.167969 2.1875 -0.132812 2.453125 -0.132812 L 2.453125 0 L 0.371094 0 Z "/>
</g>
<g id="glyph-0-5">
<path d="M 1 -1.234375 C 1.003906 -0.78125 1.039062 -0.476562 1.101562 -0.320312 C 1.164062 -0.160156 1.261719 -0.0820312 1.390625 -0.0820312 C 1.550781 -0.0820312 1.660156 -0.226562 1.714844 -0.519531 C 1.746094 -0.679688 1.761719 -0.917969 1.761719 -1.234375 L 1.761719 -2.507812 C 1.761719 -2.957031 1.726562 -3.261719 1.664062 -3.417969 C 1.601562 -3.578125 1.507812 -3.65625 1.382812 -3.65625 C 1.257812 -3.65625 1.164062 -3.578125 1.097656 -3.417969 C 1.035156 -3.257812 1 -2.953125 1 -2.507812 Z M 0.128906 -1.84375 C 0.128906 -2.507812 0.277344 -3.023438 0.574219 -3.386719 C 0.808594 -3.675781 1.078125 -3.820312 1.378906 -3.820312 C 1.730469 -3.820312 2.027344 -3.640625 2.269531 -3.285156 C 2.511719 -2.917969 2.632812 -2.460938 2.632812 -1.90625 C 2.632812 -1.253906 2.496094 -0.746094 2.21875 -0.382812 C 1.984375 -0.078125 1.707031 0.0742188 1.382812 0.0742188 C 1.15625 0.0742188 0.960938 0.0078125 0.800781 -0.125 C 0.640625 -0.257812 0.5 -0.429688 0.386719 -0.644531 C 0.289062 -0.824219 0.222656 -1.027344 0.183594 -1.257812 C 0.160156 -1.394531 0.140625 -1.589844 0.128906 -1.84375 Z "/>
</g>
</g>
</defs>
<g fill="rgb(52.54902%, 93.72549%, 67.45098%)" fill-opacity="1">
<use xlink:href="#glyph-0-0" x="30" y="24.166992"/>
<use xlink:href="#glyph-0-1" x="33" y="24.166992"/>
<use xlink:href="#glyph-0-2" x="34" y="24.166992"/>
<use xlink:href="#glyph-0-3" x="37" y="24.166992"/>
<use xlink:href="#glyph-0-4" x="39" y="24.166992"/>
<use xlink:href="#glyph-0-5" x="42" y="24.166992"/>
</g>
</svg>
